[mp3 @ 0x5c2e84ca3880] Estimating duration from bitrate, this may be inaccurate
Input #0, mp3, from 'reports/roundtable-user-qa-2026-06-05-v3/audio/03-200.mp3':
  Duration: 00:00:07.94, start: 0.000000, bitrate: 128 kb/s
  Stream #0:0: Audio: mp3, 44100 Hz, mono, fltp, 128 kb/s
Stream mapping:
  Stream #0:0 -> #0:0 (mp3 (mp3float) -> pcm_s16le (native))
Press [q] to stop, [?] for help
Output #0, null, to 'pipe:':
  Metadata:
    encoder         : Lavf59.27.100
  Stream #0:0: Audio: pcm_s16le, 44100 Hz, mono, s16, 705 kb/s
    Metadata:
      encoder         : Lavc59.37.100 pcm_s16le
size=N/A time=00:00:00.02 bitrate=N/A speed=N/A    size=N/A time=00:00:07.94 bitrate=N/A speed= 196x    
video:0kB audio:684kB subtitle:0kB other streams:0kB global headers:0kB muxing overhead: unknown
[Parsed_volumedetect_0 @ 0x5c2e84cb7cc0] n_samples: 350208
[Parsed_volumedetect_0 @ 0x5c2e84cb7cc0] mean_volume: -21.4 dB
[Parsed_volumedetect_0 @ 0x5c2e84cb7cc0] max_volume: -0.5 dB
[Parsed_volumedetect_0 @ 0x5c2e84cb7cc0] histogram_0db: 2
[Parsed_volumedetect_0 @ 0x5c2e84cb7cc0] histogram_1db: 1
[Parsed_volumedetect_0 @ 0x5c2e84cb7cc0] histogram_2db: 2
[Parsed_volumedetect_0 @ 0x5c2e84cb7cc0] histogram_3db: 11
[Parsed_volumedetect_0 @ 0x5c2e84cb7cc0] histogram_4db: 28
[Parsed_volumedetect_0 @ 0x5c2e84cb7cc0] histogram_5db: 61
[Parsed_volumedetect_0 @ 0x5c2e84cb7cc0] histogram_6db: 133
[Parsed_volumedetect_0 @ 0x5c2e84cb7cc0] histogram_7db: 263
